<svg width="231" height="63" viewBox="0 0 231 63" fill="none" xmlns="http://www.w3.org/2000/svg">
<path opacity="0.2" d="M24.5501 51.1023C24.2818 51.2446 23.9902 51.3039 23.687 51.3039V59.0262C23.9786 59.0262 24.2818 58.955 24.5501 58.8245L35.1865 53.4154L45.8229 48.0062C46.1495 47.8402 46.4177 47.591 46.6043 47.2826C46.7909 46.9742 46.8959 46.6184 46.8959 46.2506V43.0241V39.7976L35.723 45.444L24.5501 51.1023Z" fill="url(#paint0_linear_256_247)"/>
<g opacity="0.1">
<path opacity="0.1" d="M23.6869 51.3039C23.3953 51.3039 23.1038 51.2327 22.8239 51.1022L11.6509 45.4558L0.478027 39.8094V43.036V46.2625C0.478027 46.6302 0.582992 46.9861 0.769596 47.2945C0.9562 47.6029 1.22444 47.852 1.551 48.0181L12.1874 53.4272L22.8239 58.8364C23.0921 58.9787 23.3953 59.038 23.6869 59.038" fill="white"/>
<path opacity="0.1" d="M83.9485 0H0V63H83.9485V0Z" fill="url(#paint1_linear_256_247)"/>
</g>
<path opacity="0.75" d="M43.0238 37.8403L39.1518 35.8831L31.8509 39.5722L24.55 43.2613C24.2818 43.4037 23.9902 43.463 23.687 43.463L23.6753 51.292C23.9669 51.292 24.2584 51.2208 24.5383 51.0904L35.7113 45.444L46.8842 39.7976L43.0238 37.8403Z" fill="url(#paint2_linear_256_247)"/>
<path opacity="0.4" d="M22.836 43.2732L15.5234 39.5841L8.21087 35.8949L4.33883 37.8522L0.466797 39.8094L11.6397 45.4558L22.8126 51.1022C23.0809 51.2446 23.3725 51.3039 23.6757 51.3039L23.6873 43.4749C23.3958 43.4749 23.1042 43.4037 22.836 43.2732Z" fill="url(#paint3_linear_256_247)"/>
<path d="M39.1635 17.7933C39.1401 17.473 39.0352 17.1646 38.8602 16.9036L27.559 22.6212L24.55 24.1395C24.0135 24.4123 23.3721 24.4123 22.8356 24.1395L19.8266 22.6212L15.9662 20.6639L12.0942 18.7066L10.6247 17.9593L8.5254 16.9036C8.36212 17.1646 8.25716 17.4611 8.23383 17.7695C8.22217 17.8288 8.22217 17.9 8.22217 17.9593H8.23383V26.3103V35.8712L12.1059 37.8285L15.9779 39.7857V30.2248L22.8473 33.7004C23.3838 33.9733 24.0252 33.9733 24.5617 33.7004L31.4427 30.2248V39.7857L35.3148 37.8285L39.1868 35.8712V26.3103V17.9593H39.1985C39.1635 17.9119 39.1635 17.8526 39.1635 17.7933Z" fill="url(#paint4_linear_256_247)"/>
<path opacity="0.75" d="M24.5501 43.2614L31.4194 39.7857V30.2248L24.5384 33.7004C24.2701 33.8309 23.9786 33.9021 23.687 33.9021V43.463C23.9902 43.4749 24.2818 43.4037 24.5501 43.2614Z" fill="url(#paint5_linear_256_247)"/>
<path opacity="0.5" d="M46.4877 13.0009L38.8486 16.8917C39.0469 17.2001 39.1635 17.5797 39.1635 17.9712V35.8949L46.8843 39.7976V20.652V14.1871C46.8959 13.7601 46.7443 13.3331 46.4877 13.0009Z" fill="url(#paint6_radial_256_247)"/>
<path opacity="0.5" d="M45.8231 12.4316L24.5386 1.62512C24.0021 1.35229 23.3607 1.35229 22.8125 1.62512L1.53967 12.4316C1.25976 12.5739 1.0265 12.7756 0.851562 13.0247L8.50233 16.9036C8.68894 16.6071 8.94552 16.3698 9.27207 16.2037L22.8242 9.3474C23.3607 9.07457 24.0021 9.07457 24.5386 9.3474L38.0907 16.2037C38.4056 16.3579 38.6622 16.5952 38.8372 16.8799L46.4763 12.9891C46.313 12.7637 46.0797 12.5621 45.8231 12.4316Z" fill="url(#paint7_linear_256_247)"/>
<path opacity="0.75" d="M8.50201 16.9036L0.851235 13.0247C0.61798 13.3568 0.478027 13.7601 0.478027 14.1872V39.7857L8.21044 35.8712H8.2221V26.3103L8.19877 17.9593C8.19877 17.5797 8.30374 17.212 8.50201 16.9036Z" fill="url(#paint8_radial_256_247)"/>
<path opacity="0.4" d="M22.836 43.2732L15.5234 39.5841L8.21087 35.8949L4.33883 37.8522L0.466797 39.8094L11.6397 45.4558L22.8126 51.1022C23.0809 51.2446 23.3725 51.3039 23.6757 51.3039L23.6873 43.4749C23.3958 43.4749 23.1042 43.4037 22.836 43.2732Z" fill="url(#paint9_linear_256_247)"/>
<path d="M215.323 29.5625C215.034 29.2965 214.704 29.0585 214.318 28.8625C213.933 28.6665 213.493 28.5265 212.997 28.4146C212.006 28.1906 210.588 28.0086 208.758 27.8546C207.739 27.7566 206.996 27.6726 206.501 27.5886C206.322 27.5606 206.157 27.5186 206.005 27.4906C205.868 27.4486 205.744 27.4206 205.647 27.3646C205.579 27.3366 205.524 27.3087 205.468 27.2667C205.372 27.1967 205.29 27.1127 205.248 27.0147C205.193 26.9167 205.166 26.8047 205.166 26.6787C205.166 26.5947 205.179 26.5247 205.207 26.4547C205.234 26.3847 205.276 26.3147 205.331 26.2587C205.441 26.1468 205.592 26.0488 205.785 25.9788C205.881 25.9368 206.005 25.9088 206.143 25.8808C206.281 25.8528 206.432 25.8388 206.611 25.8108C206.955 25.7828 207.382 25.7548 207.891 25.7548C208.469 25.7548 208.964 25.7828 209.391 25.8248C209.818 25.8668 210.162 25.9368 210.437 26.0348C210.644 26.1048 210.822 26.1888 210.96 26.3147C211.098 26.4267 211.208 26.5667 211.263 26.7207C211.29 26.7907 211.304 26.8607 211.318 26.9307H215.64C215.585 26.2867 215.392 25.7268 215.062 25.2368C214.718 24.7049 214.222 24.2709 213.575 23.8929C212.928 23.529 212.13 23.249 211.18 23.067C210.231 22.885 209.143 22.787 207.905 22.787C206.804 22.787 205.813 22.871 204.945 23.039C204.078 23.207 203.335 23.459 202.702 23.795C202.234 24.0469 201.849 24.3409 201.56 24.6629C201.271 24.9989 201.078 25.3628 200.954 25.7688C200.871 26.0348 200.844 26.3287 200.844 26.6507C200.844 27.1127 200.913 27.5326 201.037 27.9106C201.161 28.2886 201.353 28.6105 201.601 28.8905C201.849 29.1845 202.165 29.4365 202.551 29.6604C202.936 29.8844 203.39 30.0804 203.913 30.2344C204.959 30.5564 206.349 30.7803 208.07 30.9063C208.634 30.9483 209.13 30.9903 209.542 31.0323C209.955 31.0743 210.272 31.1163 210.52 31.1583C210.767 31.2003 210.974 31.2423 211.139 31.2983C211.304 31.3543 211.442 31.4103 211.538 31.4663C211.634 31.5363 211.717 31.6343 211.772 31.7463C211.827 31.8583 211.841 31.9842 211.841 32.1242C211.841 32.2362 211.813 32.3622 211.772 32.4602C211.731 32.5582 211.662 32.6562 211.566 32.7262C211.524 32.7682 211.456 32.8102 211.401 32.8382C211.332 32.8662 211.263 32.9082 211.18 32.9222C211.015 32.9782 210.822 33.0202 210.588 33.0621C210.354 33.1041 210.079 33.1321 209.735 33.1461C209.405 33.1601 209.019 33.1741 208.579 33.1741C207.905 33.1741 207.327 33.1321 206.845 33.0621C206.363 32.9782 205.964 32.8662 205.675 32.7122C205.468 32.6002 205.317 32.4742 205.193 32.3202C205.124 32.2362 205.069 32.1382 205.042 32.0402C205.014 31.9702 205.001 31.8863 204.987 31.8023H200.665C200.72 32.5442 200.913 33.1741 201.243 33.7201C201.601 34.294 202.11 34.742 202.785 35.092C203.459 35.4419 204.299 35.7079 205.29 35.8899C206.281 36.0719 207.45 36.1559 208.758 36.1559C209.997 36.1559 211.07 36.0719 212.006 35.9039C212.928 35.7359 213.713 35.4979 214.332 35.176C214.8 34.938 215.172 34.63 215.447 34.28C215.736 33.9161 215.929 33.4961 216.053 33.0202C216.135 32.6982 216.163 32.3482 216.163 31.9562C216.163 31.4243 216.094 30.9483 215.942 30.5564C215.819 30.1504 215.598 29.8284 215.323 29.5625Z" fill="white"/>
<path d="M71.9218 30.7803C71.8943 30.8223 71.853 30.8503 71.7979 30.8503C71.7429 30.8503 71.7016 30.8223 71.674 30.7803L68.247 23.165H61.5854V35.8199H65.742V27.3366C65.742 27.2806 65.7833 27.2247 65.8384 27.2107C65.8934 27.1967 65.9622 27.2247 65.9898 27.2806L69.8298 35.8199H73.7523L77.5923 27.2806C77.6199 27.2247 77.6749 27.1967 77.7437 27.2107C77.7988 27.2247 77.8401 27.2806 77.8401 27.3366V35.8199H81.9966V23.165H75.3351L71.9218 30.7803Z" fill="white"/>
<path d="M84.3916 35.8059H97.1916V32.6562H88.672C88.6445 32.6562 88.6032 32.6422 88.5757 32.6142C88.5482 32.5862 88.5344 32.5582 88.5344 32.5162V31.1723C88.5344 31.1443 88.5482 31.1023 88.5757 31.0743C88.6032 31.0463 88.6307 31.0323 88.672 31.0323H96.8338V27.8826H88.672C88.6445 27.8826 88.6032 27.8686 88.5757 27.8406C88.5482 27.8126 88.5344 27.7846 88.5344 27.7426V26.3988C88.5344 26.3708 88.5482 26.3288 88.5757 26.3008C88.6032 26.2728 88.6307 26.2588 88.672 26.2588H97.1916V23.109H84.3916V35.8059Z" fill="white"/>
<path d="M99.022 26.6647H104.28C104.307 26.6647 104.348 26.6787 104.376 26.7067C104.403 26.7347 104.417 26.7627 104.417 26.8047V35.8199H108.574V26.8047C108.574 26.7767 108.588 26.7347 108.615 26.7067C108.643 26.6787 108.67 26.6647 108.711 26.6647H113.969V23.165H99.0633V26.6647H99.022Z" fill="white"/>
<path d="M128.558 30.7384C128.93 30.5984 129.26 30.4304 129.549 30.2204C129.838 30.0104 130.072 29.7585 130.265 29.4785C130.458 29.1985 130.595 28.8625 130.692 28.4846C130.788 28.1066 130.843 27.6726 130.843 27.1967C130.843 26.5247 130.733 25.9508 130.527 25.4468C130.32 24.9429 130.003 24.5229 129.577 24.1869C129.15 23.851 128.627 23.585 127.98 23.417C127.333 23.249 126.59 23.151 125.723 23.151H115.979V35.8059H120.135V32.6422C120.135 32.6142 120.149 32.5722 120.176 32.5442C120.204 32.5162 120.231 32.5022 120.273 32.5022H125.173C125.393 32.5022 125.585 32.5162 125.751 32.5442C125.916 32.5722 126.067 32.6142 126.191 32.6842C126.274 32.7262 126.342 32.7822 126.397 32.8382C126.453 32.8942 126.508 32.9782 126.549 33.0622C126.59 33.1462 126.618 33.2441 126.645 33.3421C126.7 33.5521 126.714 33.8041 126.714 34.0981V35.7919H130.871V33.3421C130.871 32.9782 130.816 32.6422 130.719 32.3622C130.623 32.0823 130.471 31.8443 130.279 31.6483C130.086 31.4523 129.852 31.2983 129.577 31.1863C129.302 31.0743 128.985 31.0043 128.627 30.9763C128.572 30.9763 128.517 30.9204 128.503 30.8644C128.462 30.8224 128.503 30.7664 128.558 30.7384ZM126.453 28.3586C126.411 28.5126 126.356 28.6386 126.274 28.7505C126.191 28.8485 126.095 28.9325 125.998 28.9885C125.888 29.0445 125.778 29.0865 125.654 29.1145C125.53 29.1425 125.393 29.1565 125.228 29.1705C125.062 29.1845 124.87 29.1845 124.663 29.1845H120.259C120.231 29.1845 120.19 29.1705 120.163 29.1425C120.135 29.1145 120.121 29.0865 120.121 29.0445V26.6087C120.121 26.5807 120.135 26.5387 120.163 26.5107C120.19 26.4827 120.218 26.4687 120.259 26.4687H124.663C124.883 26.4687 125.062 26.4687 125.228 26.4827C125.393 26.4967 125.53 26.5107 125.654 26.5247C125.778 26.5527 125.888 26.5947 125.998 26.6507C126.108 26.7067 126.191 26.7907 126.274 26.8887C126.356 27.0007 126.425 27.1267 126.453 27.2807C126.494 27.4347 126.508 27.6026 126.508 27.8126C126.508 28.0366 126.494 28.2046 126.453 28.3586Z" fill="white"/>
<path d="M148.047 25.8528C147.731 25.3628 147.332 24.9149 146.878 24.5369C146.41 24.1589 145.873 23.837 145.267 23.571C144.042 23.053 142.57 22.787 140.849 22.787C139.115 22.787 137.628 23.053 136.417 23.571C135.812 23.823 135.275 24.1449 134.821 24.5229C134.353 24.9009 133.967 25.3348 133.651 25.8388C133.334 26.3287 133.087 26.8887 132.935 27.4906C132.77 28.0926 132.701 28.7505 132.701 29.4645C132.701 30.1784 132.784 30.8363 132.935 31.4383C133.1 32.0402 133.334 32.6002 133.651 33.0901C133.967 33.5941 134.353 34.0281 134.821 34.406C135.289 34.784 135.812 35.106 136.417 35.3719C137.628 35.8899 139.101 36.1559 140.849 36.1559C142.57 36.1559 144.056 35.8899 145.267 35.3719C145.873 35.106 146.41 34.784 146.878 34.406C147.345 34.0281 147.731 33.5801 148.047 33.0901C148.364 32.5862 148.612 32.0402 148.763 31.4383C148.928 30.8363 148.997 30.1784 148.997 29.4645C148.997 28.7505 148.915 28.1066 148.763 27.5046C148.598 26.9027 148.364 26.3567 148.047 25.8528ZM144.373 31.0043C144.166 31.4383 143.85 31.7883 143.45 32.0542C143.175 32.2362 142.859 32.3622 142.501 32.4602C142.019 32.5862 141.469 32.6562 140.849 32.6562C140.147 32.6562 139.542 32.5722 139.019 32.4042C138.509 32.2362 138.083 31.9842 137.766 31.6483C137.546 31.4243 137.381 31.1583 137.257 30.8503C137.092 30.4444 137.009 29.9824 137.009 29.4645C137.009 28.9885 137.078 28.5545 137.229 28.1626C137.381 27.7706 137.601 27.4346 137.89 27.1547C138.193 26.8607 138.592 26.6507 139.074 26.5107C139.569 26.3707 140.161 26.3007 140.835 26.3007C141.524 26.3007 142.102 26.3707 142.597 26.5107C143.093 26.6507 143.492 26.8607 143.781 27.1547C144.07 27.4346 144.29 27.7846 144.441 28.1626C144.593 28.5545 144.662 28.9885 144.662 29.4645C144.675 30.0524 144.579 30.5704 144.373 31.0043Z" fill="white"/>
<path d="M158.301 32.9082C158.273 32.9502 158.232 32.9782 158.191 32.9782C158.15 32.9782 158.095 32.9502 158.067 32.9082L153.566 23.151H149.162L155.122 35.8059H161.233L167.192 23.151H162.788L158.301 32.9082Z" fill="white"/>
<path d="M168.94 35.8059H181.74V32.6562H173.221C173.193 32.6562 173.152 32.6422 173.125 32.6142C173.111 32.6002 173.097 32.5722 173.097 32.5302V31.1863C173.097 31.1583 173.111 31.1163 173.138 31.0883C173.166 31.0603 173.193 31.0463 173.235 31.0463H181.396V27.8966H173.235C173.207 27.8966 173.166 27.8826 173.138 27.8546C173.111 27.8266 173.097 27.7986 173.097 27.7566V26.4127C173.097 26.3847 173.111 26.3427 173.138 26.3147C173.166 26.2867 173.193 26.2727 173.235 26.2727H181.754V23.123H168.954V35.8059H168.94Z" fill="white"/>
<path d="M196.536 30.7384C196.907 30.5984 197.238 30.4304 197.527 30.2204C197.816 30.0104 198.05 29.7585 198.243 29.4785C198.435 29.1985 198.573 28.8625 198.669 28.4846C198.766 28.1066 198.821 27.6726 198.821 27.1967C198.821 26.5247 198.71 25.9508 198.504 25.4468C198.298 24.9429 197.981 24.5229 197.554 24.1869C197.128 23.851 196.605 23.585 195.958 23.417C195.311 23.249 194.568 23.151 193.701 23.151H183.956V35.8059H188.113V32.6422C188.113 32.6142 188.126 32.5722 188.154 32.5442C188.181 32.5162 188.209 32.5022 188.25 32.5022H193.15C193.37 32.5022 193.563 32.5162 193.728 32.5442C193.893 32.5722 194.045 32.6142 194.169 32.6842C194.251 32.7262 194.32 32.7822 194.375 32.8382C194.43 32.8942 194.485 32.9782 194.526 33.0622C194.568 33.1462 194.595 33.2441 194.623 33.3421C194.678 33.5521 194.692 33.8041 194.692 34.0981V35.7919H198.848V33.3421C198.848 32.9782 198.793 32.6422 198.697 32.3622C198.6 32.0823 198.449 31.8443 198.256 31.6483C198.064 31.4523 197.83 31.2983 197.554 31.1863C197.279 31.0743 196.963 31.0043 196.605 30.9763C196.55 30.9763 196.495 30.9204 196.481 30.8644C196.44 30.8224 196.481 30.7664 196.536 30.7384ZM194.43 28.3586C194.389 28.5126 194.334 28.6386 194.251 28.7505C194.169 28.8485 194.072 28.9325 193.976 28.9885C193.866 29.0445 193.756 29.0865 193.632 29.1145C193.508 29.1425 193.37 29.1565 193.205 29.1705C193.04 29.1845 192.847 29.1845 192.641 29.1845H188.236C188.209 29.1845 188.168 29.1705 188.14 29.1425C188.113 29.1145 188.099 29.0865 188.099 29.0445V26.6087C188.099 26.5807 188.113 26.5387 188.14 26.5107C188.168 26.4827 188.195 26.4687 188.236 26.4687H192.641C192.861 26.4687 193.04 26.4687 193.205 26.4827C193.37 26.4967 193.508 26.5107 193.632 26.5247C193.756 26.5527 193.866 26.5947 193.976 26.6507C194.086 26.7067 194.169 26.7907 194.251 26.8887C194.334 27.0007 194.403 27.1267 194.43 27.2807C194.471 27.4347 194.485 27.6026 194.485 27.8126C194.485 28.0366 194.471 28.2046 194.43 28.3586Z" fill="white"/>
<path d="M222.384 26.3428C222.411 26.3148 222.439 26.3008 222.48 26.3008H231V23.151H218.2V35.8059H231V32.6562H222.48C222.453 32.6562 222.411 32.6422 222.384 32.6142C222.356 32.5862 222.342 32.5582 222.342 32.5162V31.1723C222.342 31.1443 222.356 31.1023 222.384 31.0743C222.411 31.0463 222.439 31.0323 222.48 31.0323H230.642V27.8826H222.48C222.453 27.8826 222.411 27.8686 222.384 27.8406C222.356 27.8126 222.342 27.7846 222.342 27.7426V26.3987C222.342 26.3987 222.356 26.3707 222.384 26.3428Z" fill="white"/>
<defs>
<linearGradient id="paint0_linear_256_247" x1="20.6662" y1="49.4113" x2="135.214" y2="49.4113" gradientUnits="userSpaceOnUse">
<stop stop-color="#3360FF"/>
<stop offset="0.5" stop-color="#00F4FF"/>
<stop offset="1" stop-color="#00FF80"/>
</linearGradient>
<linearGradient id="paint1_linear_256_247" x1="0.00268243" y1="31.4994" x2="83.9512" y2="31.4994" gradientUnits="userSpaceOnUse">
<stop stop-color="#3360FF"/>
<stop offset="0.5" stop-color="#00F4FF"/>
<stop offset="1" stop-color="#00FF80"/>
</linearGradient>
<linearGradient id="paint2_linear_256_247" x1="3.81724" y1="59.4782" x2="103.624" y2="4.77958" gradientUnits="userSpaceOnUse">
<stop offset="0.0289" stop-color="#007AFF" stop-opacity="0.5"/>
<stop offset="0.2768" stop-color="#00E1FF"/>
<stop offset="0.4986" stop-color="#00FF80"/>
</linearGradient>
<linearGradient id="paint3_linear_256_247" x1="12.0887" y1="51.3022" x2="12.0887" y2="35.8809" gradientUnits="userSpaceOnUse">
<stop stop-color="#1CCAFF" stop-opacity="0.75"/>
<stop offset="0.1463" stop-color="#20C5FF" stop-opacity="0.6402"/>
<stop offset="0.3191" stop-color="#2BB7FF" stop-opacity="0.5107"/>
<stop offset="0.5051" stop-color="#3D9FFF" stop-opacity="0.3711"/>
<stop offset="0.7006" stop-color="#577EFF" stop-opacity="0.2245"/>
<stop offset="0.9014" stop-color="#7854FF" stop-opacity="0.0739"/>
<stop offset="1" stop-color="#8A3CFF" stop-opacity="0"/>
</linearGradient>
<linearGradient id="paint4_linear_256_247" x1="5.59047" y1="28.3501" x2="40.245" y2="28.3501" gradientUnits="userSpaceOnUse">
<stop stop-color="#3360FF"/>
<stop offset="0.5" stop-color="#00F4FF"/>
<stop offset="1" stop-color="#00FF80"/>
</linearGradient>
<linearGradient id="paint5_linear_256_247" x1="15.6279" y1="26.8144" x2="29.1069" y2="37.7752" gradientUnits="userSpaceOnUse">
<stop stop-color="#00FF95" stop-opacity="0.25"/>
<stop offset="0.1264" stop-color="#13DEB5" stop-opacity="0.2967"/>
<stop offset="0.279" stop-color="#26BDD5" stop-opacity="0.3531"/>
<stop offset="0.4254" stop-color="#33A5EC" stop-opacity="0.4072"/>
<stop offset="0.5613" stop-color="#3B97FA" stop-opacity="0.4574"/>
<stop offset="0.6764" stop-color="#3E92FF" stop-opacity="0.5"/>
</linearGradient>
<radialGradient id="paint6_radial_256_247" cx="0" cy="0" r="1" gradientUnits="userSpaceOnUse" gradientTransform="translate(23.6868 20.6087) scale(21.1456 21.5072)">
<stop stop-color="#5161FF"/>
<stop offset="1" stop-color="#5161FF"/>
</radialGradient>
<linearGradient id="paint7_linear_256_247" x1="0.848414" y1="9.15701" x2="46.4852" y2="9.15701" gradientUnits="userSpaceOnUse">
<stop stop-color="#5161FF" stop-opacity="0.75"/>
<stop offset="0.3613" stop-color="#5161FF" stop-opacity="0.9928"/>
<stop offset="0.6471" stop-color="#5161FF"/>
<stop offset="1" stop-color="#5161FF" stop-opacity="0.75"/>
</linearGradient>
<radialGradient id="paint8_radial_256_247" cx="0" cy="0" r="1" gradientUnits="userSpaceOnUse" gradientTransform="translate(23.6785 20.6001) scale(41.7275 42.441)">
<stop stop-color="#5161FF"/>
<stop offset="1" stop-color="#5161FF" stop-opacity="0.25"/>
</radialGradient>
<linearGradient id="paint9_linear_256_247" x1="12.0887" y1="51.3022" x2="12.0887" y2="35.8809" gradientUnits="userSpaceOnUse">
<stop stop-color="#1CCAFF" stop-opacity="0.75"/>
<stop offset="0.1463" stop-color="#20C5FF" stop-opacity="0.6402"/>
<stop offset="0.3191" stop-color="#2BB7FF" stop-opacity="0.5107"/>
<stop offset="0.5051" stop-color="#3D9FFF" stop-opacity="0.3711"/>
<stop offset="0.7006" stop-color="#577EFF" stop-opacity="0.2245"/>
<stop offset="0.9014" stop-color="#7854FF" stop-opacity="0.0739"/>
<stop offset="1" stop-color="#8A3CFF" stop-opacity="0"/>
</linearGradient>
</defs>
</svg>
